<?xml version="1.0" encoding="utf-8"?>
<!-- Generator: Adobe Illustrator 26.0.1, SVG Export Plug-In . SVG Version: 6.00 Build 0)  -->
<svg version="1.1" id="Слой_1" xmlns="http://www.w3.org/2000/svg" xmlns:xlink="http://www.w3.org/1999/xlink" x="0px" y="0px"
	 width="1920px" height="1080px" viewBox="0 0 1920 1080" style="enable-background:new 0 0 1920 1080;" xml:space="preserve">
<style type="text/css">
	.st0{fill:#3282C1;}
	.st1{opacity:0.7;}
</style>
<g>
	<g id="f1">
		<g>
			
				<image style="overflow:visible;enable-background:new    ;" width="2080" height="452" xlink:href="21C6C03F.png"  transform="matrix(1 0 0 1 -80 314)">
			</image>
			<path class="st0" d="M-49.1,667.6c672-250.9,1348.2,240.3,2018.1,0V416.6c-672,250.9-1351.9-250.9-2018.1,0L-49.1,667.6z"/>
		</g>
		<g class="st1">
			
				<image style="overflow:visible;opacity:0.75;enable-background:new    ;" width="61" height="210" xlink:href="21C6C03D.png"  transform="matrix(1 0 0 1 67 519)">
			</image>
		</g>
		<g class="st1">
			
				<image style="overflow:visible;opacity:0.75;enable-background:new    ;" width="2079" height="453" xlink:href="21C6C043.png"  transform="matrix(1 0 0 1 -79.5001 313.5)">
			</image>
			<path class="st0" d="M1969.1,667.6c-672-250.9-1348.2,240.3-2018.1,0V416.6c672,250.9,1351.9-250.9,2018.1,0V667.6z"/>
		</g>
	</g>
</g>
</svg>
